<?xml version="1.0" encoding="UTF-8"?>
<svg width="26px" height="25px" viewBox="0 0 26 25" version="1.1" xmlns="http://www.w3.org/2000/svg" xmlns:xlink="http://www.w3.org/1999/xlink">
    <!-- Generator: Sketch 52.4 (67378) - http://www.bohemiancoding.com/sketch -->
    <title>caller-id</title>
    <desc>Created with Sketch.</desc>
    <g id="Page-1" stroke="none" stroke-width="1" fill="none" fill-rule="evenodd">
        <g id="engagex" transform="translate(-928.000000, -1551.000000)" fill="#0A4776" fill-rule="nonzero">
            <path d="M944.38152,1571.13483 C944.750578,1570.73539 945.269698,1570.50824 945.813534,1570.50824 C946.357369,1570.50824 946.876489,1570.73539 947.245548,1571.13483 L947.428418,1571.3177 L947.622542,1571.1714 C948.103201,1570.78899 948.530837,1570.34433 948.894193,1569.84911 L948.711323,1569.66624 C948.569033,1569.52417 948.446918,1569.36324 948.348396,1569.18796 C947.251407,1568.69077 946.107155,1568.30527 944.932944,1568.03729 C944.903898,1568.02946 944.884079,1568.00264 944.885116,1567.97258 L944.885116,1567.04698 C945.423004,1566.34569 945.824746,1565.54984 946.069552,1564.70061 C946.680057,1564.09855 946.950142,1563.14199 947.093625,1562.62996 C947.32995,1561.78594 947.569087,1560.58462 946.913568,1559.7181 L946.885434,1559.68153 C947.200534,1558.1623 947.594408,1554.57523 944.868236,1552.75778 C945.187433,1552.43164 945.360981,1551.99016 945.349325,1551.53396 C945.345972,1551.48991 945.324597,1551.4492 945.290244,1551.42142 C945.256039,1551.39429 945.212778,1551.38121 945.169268,1551.38485 C945.135507,1551.38485 941.725682,1551.7731 940.085477,1551.43268 C938.397445,1551.08382 936.549049,1552.36391 936.166429,1553.68339 C935.530277,1553.76627 934.951229,1554.09312 934.551545,1554.59492 C933.80881,1555.50365 933.589366,1556.95254 933.870705,1558.92191 C933.890398,1559.17512 933.921346,1559.4227 933.963547,1559.67871 L933.935413,1559.71529 C933.282707,1560.579 933.521845,1561.79157 933.758169,1562.62714 C933.904465,1563.14199 934.174551,1564.09573 934.782242,1564.6978 C935.025781,1565.55269 935.427542,1566.3543 935.966678,1567.06104 L935.966678,1567.96977 C935.968844,1568.00017 935.948551,1568.02762 935.918851,1568.03447 C933.589366,1568.57464 928.167969,1570.29081 928.167969,1574.59248 C928.167969,1575.05862 928.545848,1575.4365 929.011985,1575.4365 L943.408088,1575.4365 L943.154883,1575.19173 C942.776828,1574.82131 942.563784,1574.31432 942.563784,1573.78504 C942.563784,1573.25576 942.776828,1572.74876 943.154883,1572.37834 C943.301179,1572.22361 943.436222,1572.08013 943.588144,1571.94227 L943.790708,1571.74252 L944.170516,1571.36553 L944.38152,1571.13483 Z M936.008879,1563.70467 C935.921664,1563.70467 935.609378,1563.56963 935.223944,1562.21076 C934.922912,1561.15012 935.049514,1560.76468 935.153609,1560.62964 C935.225305,1560.53959 935.337085,1560.49108 935.451828,1560.50022 L935.524977,1560.50022 C935.612553,1560.50505 935.687757,1560.43862 935.69378,1560.35111 C935.69378,1560.32861 935.882277,1558.04414 937.235516,1557.21981 C937.913542,1556.80906 938.780066,1556.82313 939.818206,1557.26483 C941.9395,1558.17074 943.51781,1558.10884 944.479988,1557.89784 C945.577209,1558.7081 945.26211,1559.99944 945.186148,1560.25265 L945.186148,1560.28359 C945.168126,1560.33524 945.177671,1560.39251 945.211469,1560.43552 C945.245666,1560.4792 945.299712,1560.50251 945.354952,1560.49741 C945.489796,1560.47256 945.627746,1560.52069 945.717879,1560.62401 C945.819161,1560.75905 945.945763,1561.14449 945.647544,1562.20514 C945.248043,1563.57526 944.935757,1563.70467 944.842915,1563.70467 C944.768728,1563.7103 944.708153,1563.76621 944.696619,1563.83971 C944.471548,1565.28861 943.320873,1567.08636 941.551252,1567.725 C940.817145,1567.98711 940.014956,1567.98711 939.280849,1567.725 C937.44652,1567.08074 936.374619,1565.26329 936.155175,1563.84534 C936.146058,1563.76963 936.084888,1563.71081 936.008879,1563.70467 Z M940.428711,1571.32895 C938.987017,1571.34618 937.625401,1570.66747 936.771307,1569.50588 C937.143538,1569.29762 937.42673,1568.96039 937.567496,1568.55776 C937.949346,1568.80984 938.360268,1569.01483 938.791319,1569.16827 C939.855311,1569.54457 941.016177,1569.54457 942.080169,1569.16827 C942.510053,1569.01178 942.919907,1568.80496 943.301179,1568.55214 C943.440116,1568.96107 943.725822,1569.30391 944.102994,1569.51432 C943.243606,1570.67761 941.874809,1571.35363 940.428711,1571.32895 Z M952.624744,1567.17358 C952.955191,1567.47156 953.122611,1567.90999 953.074886,1568.35239 C953.011546,1568.99393 952.826297,1569.61747 952.529089,1570.18953 C951.902225,1571.49064 951.003241,1572.64196 949.892945,1573.56559 C949.08213,1574.26499 948.157124,1574.8198 947.158333,1575.2058 C946.679521,1575.40487 946.162764,1575.49612 945.644731,1575.47307 C945.324733,1575.44925 945.024516,1575.30915 944.800714,1575.0792 L944.043913,1574.3224 C943.889713,1574.18519 943.801501,1573.98863 943.801501,1573.78222 C943.801501,1573.57582 943.889713,1573.37926 944.043913,1573.24205 C944.24085,1573.03105 944.451854,1572.83411 944.660045,1572.62592 L945.26211,1572.02386 C945.397812,1571.85712 945.601368,1571.76034 945.816347,1571.76034 C946.031326,1571.76034 946.234882,1571.85712 946.370585,1572.02386 C946.623789,1572.27706 946.874181,1572.5162 947.113319,1572.78066 C947.159573,1572.84137 947.243186,1572.85929 947.310256,1572.82286 C947.704088,1572.64911 948.071546,1572.42086 948.40185,1572.14483 C949.07574,1571.61155 949.65824,1570.97204 950.126457,1570.25142 C950.224925,1570.09669 950.29526,1569.91382 950.393728,1569.75908 C950.437364,1569.6886 950.418916,1569.59636 950.351528,1569.54808 L949.594726,1568.79128 C949.43448,1568.65764 949.341838,1568.45976 949.341838,1568.25111 C949.341838,1568.04245 949.43448,1567.84457 949.594726,1567.71093 L950.815736,1566.48992 C950.955199,1566.32945 951.157368,1566.2373 951.369974,1566.2373 C951.582579,1566.2373 951.784749,1566.32945 951.924211,1566.48992 C952.157722,1566.71218 952.37154,1566.96257 952.624744,1567.17358 Z" id="caller-id"></path>
        </g>
    </g>
</svg>