<?xml version="1.0" encoding="UTF-8"?>
<svg width="22px" height="22px" viewBox="0 0 22 22" version="1.1" xmlns="http://www.w3.org/2000/svg" xmlns:xlink="http://www.w3.org/1999/xlink">
    <!-- Generator: Sketch 52.4 (67378) - http://www.bohemiancoding.com/sketch -->
    <title>no-contracts</title>
    <desc>Created with Sketch.</desc>
    <g id="Page-1" stroke="none" stroke-width="1" fill="none" fill-rule="evenodd">
        <g id="engagex" transform="translate(-928.000000, -1837.000000)" fill="#0A4776">
            <g id="no-contracts" transform="translate(928.436242, 1837.476562)">
                <path d="M17.7206903,0.123403136 L6.41696306,0.123403136 C4.78804166,0.123403136 3.47996843,1.43147637 3.4552878,3.06039776 L3.35656529,14.0185962 L2.83827212,14.0185962 C1.28339261,14.0185962 0.0493612543,15.2773082 0.0493612543,16.8075071 C0.0493612543,18.7819572 1.57956014,20.4355593 3.57869093,20.583643 C3.62805219,20.583643 3.67741344,20.583643 3.70209407,20.583643 L16.7334652,20.583643 L16.7828265,20.583643 L16.9062296,20.583643 C19.0040829,20.583643 20.6823655,18.8806798 20.6823655,16.8075071 L20.6823655,3.08507839 C20.6823655,1.456157 19.3742923,0.123403136 17.7206903,0.123403136 Z M3.82549721,18.6338735 C2.83827212,18.6338735 2.02381143,17.8194128 2.02381143,16.8321877 C2.02381143,16.3879364 2.39402083,16.017727 2.83827212,16.017727 L13.1300936,16.017727 L13.1300936,16.8321877 C13.1300936,17.473884 13.2781774,18.0908997 13.5743449,18.6338735 L3.82549721,18.6338735 Z M16.9062296,18.6338735 C15.8943239,18.6338735 15.1045438,17.8194128 15.1045438,16.8321877 L15.1045438,15.0305019 C15.1045438,14.4875281 14.6602925,14.0432768 14.1173187,14.0432768 L5.33101546,14.0432768 L5.42973797,3.08507839 C5.42973797,2.54210459 5.87398926,2.09785331 6.41696306,2.09785331 L17.7206903,2.09785331 C18.2636641,2.09785331 18.7079154,2.54210459 18.7079154,3.08507839 L18.7079154,16.8321877 C18.7079154,17.8194128 17.9181353,18.6338735 16.9062296,18.6338735 Z" id="Shape" fill-rule="nonzero"></path>
                <path d="M7.50291065,5.97271177 L11.8220204,5.97271177 C12.3649942,5.97271177 12.8092455,5.52846048 12.8092455,4.98548668 C12.8092455,4.44251288 12.3649942,3.9982616 11.8220204,3.9982616 L7.50291065,3.9982616 C6.95993685,3.9982616 6.51568556,4.44251288 6.51568556,4.98548668 C6.51568556,5.52846048 6.95993685,5.97271177 7.50291065,5.97271177 Z" id="Path"></path>
                <path d="M16.2645333,7.20674312 L7.50291065,7.20674312 C6.95993685,7.20674312 6.51568556,7.65099441 6.51568556,8.19396821 C6.51568556,8.73694201 6.95993685,9.18119329 7.50291065,9.18119329 L16.2645333,9.18119329 C16.8075071,9.18119329 17.2517584,8.73694201 17.2517584,8.19396821 C17.2517584,7.65099441 16.8075071,7.20674312 16.2645333,7.20674312 Z" id="Path"></path>
                <path d="M16.2645333,10.4152247 L7.50291065,10.4152247 C6.95993685,10.4152247 6.51568556,10.8594759 6.51568556,11.4024497 C6.51568556,11.9454235 6.95993685,12.3896748 7.50291065,12.3896748 L16.2645333,12.3896748 C16.8075071,12.3896748 17.2517584,11.9454235 17.2517584,11.4024497 C17.2517584,10.8594759 16.8075071,10.4152247 16.2645333,10.4152247 Z" id="Path"></path>
            </g>
        </g>
    </g>
</svg>