<?xml version="1.0" encoding="UTF-8"?>
<svg width="24px" height="24px" viewBox="0 0 24 24" version="1.1" xmlns="http://www.w3.org/2000/svg" xmlns:xlink="http://www.w3.org/1999/xlink">
    <!-- Generator: Sketch 52.4 (67378) - http://www.bohemiancoding.com/sketch -->
    <title>world</title>
    <desc>Created with Sketch.</desc>
    <g id="Page-1" stroke="none" stroke-width="1" fill="none" fill-rule="evenodd">
        <g id="engagex" transform="translate(-928.000000, -1768.000000)" fill="#0A4776">
            <g id="world" transform="translate(928.167969, 1767.476562)">
                <path d="M22.1897227,12.8843551 L0.715797507,12.8843551 C0.320677283,12.8843551 0,12.5636779 0,12.1685576 C0,11.7734374 0.320677283,11.4527601 0.715797507,11.4527601 L22.1897227,11.4527601 C22.5855588,11.4527601 22.9055202,11.7734374 22.9055202,12.1685576 C22.9055202,12.5636779 22.5855588,12.8843551 22.1897227,12.8843551 Z" id="Path"></path>
                <path d="M11.4527601,23.6213177 C11.0576399,23.6213177 10.7369626,23.3013563 10.7369626,22.9055202 L10.7369626,1.43159501 C10.7369626,1.03647479 11.0576399,0.715797507 11.4527601,0.715797507 C11.8478803,0.715797507 12.1685576,1.03647479 12.1685576,1.43159501 L12.1685576,22.9055202 C12.1685576,23.3013563 11.8478803,23.6213177 11.4527601,23.6213177 Z" id="Path"></path>
                <path d="M11.5372242,9.31538876 C8.68835015,9.31538876 5.82301272,8.07419588 2.96125429,5.59037853 C2.66276673,5.33125984 2.63055584,4.87887581 2.88967454,4.58038825 C3.14807744,4.28118489 3.60046146,4.2496898 3.89966482,4.5088085 C9.05340687,8.98182712 14.0024308,8.99542728 19.0294767,4.55175635 C19.3258169,4.29049026 19.7782009,4.31840636 20.039467,4.61403073 C20.3014489,4.9103709 20.2735328,5.36275493 19.9771926,5.62473681 C17.1941719,8.08493285 14.3732139,9.31538876 11.5372242,9.31538876 Z" id="Path"></path>
                <path d="M11.4527601,23.6213177 C5.13799451,23.6213177 0,18.4833232 0,12.1685576 C0,5.85379202 5.13799451,0.715797507 11.4527601,0.715797507 C17.7675257,0.715797507 22.9055202,5.85379202 22.9055202,12.1685576 C22.9055202,18.4833232 17.7675257,23.6213177 11.4527601,23.6213177 Z M11.4527601,2.14739252 C5.92680336,2.14739252 1.43159501,6.64260087 1.43159501,12.1685576 C1.43159501,17.6945144 5.92680336,22.1897227 11.4527601,22.1897227 C16.9787169,22.1897227 21.4739252,17.6945144 21.4739252,12.1685576 C21.4739252,6.64260087 16.9787169,2.14739252 11.4527601,2.14739252 Z" id="Shape" fill-rule="nonzero"></path>
                <path d="M19.4747028,20.0029613 C19.3086378,20.0029613 19.1411411,19.9456975 19.0058554,19.827591 C13.8542608,15.3560039 8.90523679,15.3409722 3.8760435,19.7839273 C3.57970333,20.0451934 3.12731931,20.0179931 2.86533742,19.7216529 C2.60335553,19.4253128 2.63127164,18.9729287 2.92761181,18.7116626 C8.50940077,13.7783862 14.235065,13.789839 19.9428344,18.7467367 C20.2413219,19.0051396 20.2735328,19.4575236 20.0144141,19.7560112 C19.8741178,19.9199288 19.6744103,20.0029613 19.4747028,20.0029613 Z" id="Path"></path>
                <path d="M11.4527601,23.6213177 C11.2752423,23.6213177 11.0977246,23.5554644 10.9595756,23.4244734 C7.04273168,19.6951684 5.04136184,15.9100312 5.01058255,12.174284 C4.97908746,8.37411504 6.98332048,4.58253564 10.9674494,0.905483847 C11.258779,0.637775579 11.711163,0.656386314 11.9788713,0.946284305 C12.2472954,1.23689809 12.2286846,1.68999792 11.9380708,1.95770618 C8.26316643,5.34987057 6.41354567,8.78283542 6.44217757,12.1621154 C6.47009367,15.4948686 8.32114602,18.9357073 11.9459446,22.386567 C12.2322636,22.6592859 12.2437164,23.1131015 11.9709975,23.3987047 C11.8307012,23.5468748 11.6417307,23.6213177 11.4527601,23.6213177 Z" id="Path"></path>
                <path d="M11.4527601,23.6213177 C11.2594948,23.6213177 11.0676611,23.5440116 10.926649,23.3908309 C10.6582249,23.100933 10.6768356,22.6478331 10.9674494,22.3801249 C14.6423538,18.9879605 16.4912588,15.5549956 16.4633427,12.1749998 C16.4361424,8.84153081 14.5836584,5.40140799 10.9595756,1.94983241 C10.6732566,1.67711356 10.6618039,1.22401374 10.9345227,0.937694735 C11.2072416,0.650659934 11.6603414,0.639922972 11.9466604,0.912641822 C15.8627886,4.64194684 17.8641584,8.42708405 17.8949377,12.1628312 C17.9264328,15.9630002 15.9221998,19.7538638 11.9380708,23.4309156 C11.8006377,23.5583276 11.6266989,23.6213177 11.4527601,23.6213177 Z" id="Path"></path>
            </g>
        </g>
    </g>
</svg>